<svg xmlns="http://www.w3.org/2000/svg" width="20" height="17.143" viewBox="0 0 20 17.143">
    <defs>
        <style>
            .cls-1{fill:#ff3367;fill-rule:evenodd}
        </style>
    </defs>
    <g id="Welcome" transform="translate(0 -.286)">
        <g id="Desktop-HD-Copy-10" transform="translate(-850 -3304)">
            <path id="heart---FontAwesome" d="M860 3321.428a.668.668 0 0 1-.491-.2l-6.964-6.719a3.677 3.677 0 0 1-.307-.29q-.2-.2-.619-.731a9.906 9.906 0 0 1-.759-1.088 6.762 6.762 0 0 1-.6-1.351 4.889 4.889 0 0 1-.262-1.54 5.119 5.119 0 0 1 1.417-3.839 5.369 5.369 0 0 1 3.917-1.384 4.45 4.45 0 0 1 1.412.24 5.707 5.707 0 0 1 1.339.647q.619.407 1.066.764a10.242 10.242 0 0 1 .848.759 10.242 10.242 0 0 1 .848-.759q.446-.357 1.066-.764a5.707 5.707 0 0 1 1.339-.647 4.45 4.45 0 0 1 1.412-.24 5.369 5.369 0 0 1 3.917 1.384 5.119 5.119 0 0 1 1.417 3.839q0 2.466-2.556 5.022l-6.953 6.7a.668.668 0 0 1-.487.197z" class="cls-1"/>
        </g>
    </g>
</svg>
