<svg xmlns="http://www.w3.org/2000/svg" width="380.966" height="191" viewBox="0 0 380.966 191">
  <g id="Group_599" data-name="Group 599" transform="translate(-755.206 -1912)">
    <g id="Group_585" data-name="Group 585" transform="translate(0 140)">
      <g id="Group_583" data-name="Group 583">
        <path id="Path_354" data-name="Path 354" d="M12.54-1.1,7.92-12.5a1.417,1.417,0,0,0-1.34-.92,1.464,1.464,0,0,0-1.36.92L.62-1.1a1.186,1.186,0,0,0-.08.34A.849.849,0,0,0,1.4.08a.806.806,0,0,0,.78-.54l.96-2.5H10l.96,2.5a.852.852,0,0,0,.8.54.849.849,0,0,0,.84-.86A1.8,1.8,0,0,0,12.54-1.1ZM3.72-4.44l2.86-7.42L9.44-4.44ZM15.42.08a.751.751,0,0,0,.74-.74V-12.68a.751.751,0,0,0-.74-.74.756.756,0,0,0-.76.74V-.66A.756.756,0,0,0,15.42.08ZM18.6-4.84A4.778,4.778,0,0,0,23.42.24a4.151,4.151,0,0,0,3.1-1.2.689.689,0,0,0,.22-.5.674.674,0,0,0-.68-.68.634.634,0,0,0-.46.18,2.735,2.735,0,0,1-2.1.86c-2.06,0-3.34-1.6-3.34-3.74s1.28-3.72,3.34-3.72a2.807,2.807,0,0,1,2.12.86.634.634,0,0,0,.44.18.674.674,0,0,0,.68-.68.726.726,0,0,0-.22-.5,4.151,4.151,0,0,0-3.1-1.2A4.772,4.772,0,0,0,18.6-4.84ZM33.28.24a4.756,4.756,0,0,0,4.78-5.08A4.739,4.739,0,0,0,33.28-9.9,4.739,4.739,0,0,0,28.5-4.84,4.756,4.756,0,0,0,33.28.24Zm0-1.34c-2.06,0-3.22-1.76-3.22-3.74,0-1.96,1.16-3.72,3.22-3.72s3.2,1.76,3.2,3.72C36.48-2.86,35.34-1.1,33.28-1.1ZM47.78.08a.756.756,0,0,0,.76-.74V-6.82c0-2.1-1.06-3.08-3.08-3.08A4.8,4.8,0,0,0,42-8.26v-4.42a.751.751,0,0,0-.74-.74.756.756,0,0,0-.76.74V-.66a.756.756,0,0,0,.76.74A.751.751,0,0,0,42-.66v-6.4a3.8,3.8,0,0,1,2.86-1.5c1.3,0,2.18.5,2.18,2.2v5.7A.751.751,0,0,0,47.78.08Zm7.98.16a4.756,4.756,0,0,0,4.78-5.08A4.739,4.739,0,0,0,55.76-9.9a4.739,4.739,0,0,0-4.78,5.06A4.756,4.756,0,0,0,55.76.24Zm0-1.34c-2.06,0-3.22-1.76-3.22-3.74,0-1.96,1.16-3.72,3.22-3.72s3.2,1.76,3.2,3.72C58.96-2.86,57.82-1.1,55.76-1.1ZM63.74.08a.751.751,0,0,0,.74-.74V-12.68a.751.751,0,0,0-.74-.74.756.756,0,0,0-.76.74V-.66A.756.756,0,0,0,63.74.08Z" transform="translate(789 1791)" fill="#4d5560"/>
        <g id="Group_537" data-name="Group 537" transform="translate(589 854)">
          <path id="Path_124" data-name="Path 124" d="M-11056.026,2781.317l14.373,14.373" transform="translate(11224 -1859)" fill="#eee" stroke="#ffa031" stroke-width="5"/>
          <path id="Path_125" data-name="Path 125" d="M-11056.026,2781.317l14.373,14.373" transform="translate(2963.664 11978.344) rotate(90)" fill="#eee" stroke="#ffa031" stroke-width="5"/>
        </g>
      </g>
      <g id="Group_582" data-name="Group 582" transform="translate(0 -4)">
        <path id="Path_353" data-name="Path 353" d="M12.68.08a1.117,1.117,0,0,0,1.1-.84l3.28-11.52a1.17,1.17,0,0,0,.04-.26.875.875,0,0,0-.88-.88.876.876,0,0,0-.84.66L12.58-2.22,9.68-12.78a.859.859,0,0,0-.84-.64.865.865,0,0,0-.86.64L5.08-2.22,2.26-12.76a.876.876,0,0,0-.84-.66.888.888,0,0,0-.88.88,1.171,1.171,0,0,0,.04.26L3.86-.76A1.141,1.141,0,0,0,4.98.08,1.136,1.136,0,0,0,6.1-.78l2.72-9.98L11.56-.78A1.12,1.12,0,0,0,12.68.08ZM17.8-4.84A4.79,4.79,0,0,0,22.72.24,5.476,5.476,0,0,0,26.16-.9a.625.625,0,0,0,.26-.5A.606.606,0,0,0,25.8-2a.657.657,0,0,0-.34.08,4.169,4.169,0,0,1-2.6.92,3.4,3.4,0,0,1-3.48-3.34h6.94c.56,0,.88-.28.88-.76a4.578,4.578,0,0,0-4.64-4.8A4.831,4.831,0,0,0,17.8-4.84Zm4.74-3.82a3.131,3.131,0,0,1,3.18,3.22H19.38A3.223,3.223,0,0,1,22.54-8.66Zm6.52,3.82A4.79,4.79,0,0,0,33.98.24,5.477,5.477,0,0,0,37.42-.9a.625.625,0,0,0,.26-.5.606.606,0,0,0-.62-.6.657.657,0,0,0-.34.08,4.169,4.169,0,0,1-2.6.92,3.4,3.4,0,0,1-3.48-3.34h6.94c.56,0,.88-.28.88-.76a4.578,4.578,0,0,0-4.64-4.8A4.831,4.831,0,0,0,29.06-4.84ZM33.8-8.66a3.131,3.131,0,0,1,3.18,3.22H30.64A3.223,3.223,0,0,1,33.8-8.66Zm14.82-4.76a.751.751,0,0,0-.74.74v4.5A4.033,4.033,0,0,0,44.62-9.9c-2.54,0-4.3,2-4.3,5.08,0,3.14,1.78,5.06,4.3,5.06a4.067,4.067,0,0,0,3.26-1.68v.78a.751.751,0,0,0,.74.74.756.756,0,0,0,.76-.74V-12.68A.756.756,0,0,0,48.62-13.42ZM44.98-1.1c-1.94,0-3.1-1.58-3.1-3.72s1.16-3.74,3.1-3.74A3.626,3.626,0,0,1,47.88-7v4.38A3.593,3.593,0,0,1,44.98-1.1Z" transform="translate(789 1850)" fill="#4d5560"/>
        <g id="Group_538" data-name="Group 538" transform="translate(589 913)">
          <path id="Path_124-2" data-name="Path 124" d="M-11056.026,2781.317l14.373,14.373" transform="translate(11224 -1859)" fill="none" stroke="#18de74" stroke-width="5"/>
          <path id="Path_125-2" data-name="Path 125" d="M-11056.026,2781.317l14.373,14.373" transform="translate(2963.664 11978.344) rotate(90)" fill="none" stroke="#18de74" stroke-width="5"/>
        </g>
      </g>
      <g id="Group_581" data-name="Group 581" transform="translate(0 -8)">
        <path id="Path_352" data-name="Path 352" d="M11.58.08A1.024,1.024,0,0,0,12.6-.94V-12.6a.828.828,0,0,0-.84-.82.837.837,0,0,0-.82.82v9.8L3.52-12.98a1.062,1.062,0,0,0-.88-.44,1.088,1.088,0,0,0-1.08,1.08V-.74A.828.828,0,0,0,2.4.08a.837.837,0,0,0,.82-.82V-10.76L10.74-.34A1.023,1.023,0,0,0,11.58.08ZM15.1-4.84A4.79,4.79,0,0,0,20.02.24,5.476,5.476,0,0,0,23.46-.9a.625.625,0,0,0,.26-.5A.606.606,0,0,0,23.1-2a.657.657,0,0,0-.34.08,4.169,4.169,0,0,1-2.6.92,3.4,3.4,0,0,1-3.48-3.34h6.94c.56,0,.88-.28.88-.76a4.578,4.578,0,0,0-4.64-4.8A4.831,4.831,0,0,0,15.1-4.84Zm4.74-3.82a3.131,3.131,0,0,1,3.18,3.22H16.68A3.223,3.223,0,0,1,19.84-8.66ZM30.46-1.28c-.2,0-.34.18-.76.18-.66,0-.98-.52-.98-1.24v-6H30.1A.683.683,0,0,0,30.78-9a.683.683,0,0,0-.68-.66H28.72v-1.98a.751.751,0,0,0-.74-.74.756.756,0,0,0-.76.74v1.98H26.2a.666.666,0,0,0-.66.66.666.666,0,0,0,.66.66h1.02v6.32A1.976,1.976,0,0,0,29.36.24a2.576,2.576,0,0,0,1.36-.32.566.566,0,0,0,.38-.56A.609.609,0,0,0,30.46-1.28Zm6.5-12.14a3.56,3.56,0,0,0-.94-.12c-1.68,0-2.8,1.14-2.8,3.14v.74H32.2a.683.683,0,0,0-.68.66.683.683,0,0,0,.68.66h1.02V-.66a.756.756,0,0,0,.76.74.751.751,0,0,0,.74-.74V-8.34H36.1A.666.666,0,0,0,36.76-9a.666.666,0,0,0-.66-.66H34.72v-.74c0-1.22.54-1.9,1.52-1.9.24,0,.44.08.58.08a.556.556,0,0,0,.6-.6A.624.624,0,0,0,36.96-13.42Zm2.26,0a.756.756,0,0,0-.76.74V-.66a.756.756,0,0,0,.76.74.751.751,0,0,0,.74-.74V-12.68A.751.751,0,0,0,39.22-13.42Zm4.48,1.8a1.007,1.007,0,0,0,1.02-1,1.024,1.024,0,0,0-1.02-1.02,1.02,1.02,0,0,0-1,1.02A1,1,0,0,0,43.7-11.62Zm0,11.7a.756.756,0,0,0,.76-.74V-9a.751.751,0,0,0-.74-.74.756.756,0,0,0-.76.74V-.66A.751.751,0,0,0,43.7.08ZM54.92-1.04,51.7-5l3.02-3.58a.743.743,0,0,0,.16-.44.713.713,0,0,0-.7-.72.615.615,0,0,0-.52.24L50.82-6.02,47.98-9.5a.6.6,0,0,0-.5-.24.73.73,0,0,0-.72.72.77.77,0,0,0,.18.44L49.96-5,46.72-1.04a.607.607,0,0,0-.16.42.693.693,0,0,0,.7.7.726.726,0,0,0,.56-.28l3-3.78L53.84-.16a.746.746,0,0,0,.54.24.693.693,0,0,0,.7-.7A.607.607,0,0,0,54.92-1.04Z" transform="translate(789 1909)" fill="#4d5560"/>
        <g id="Group_580" data-name="Group 580" transform="translate(589 972)">
          <path id="Path_124-3" data-name="Path 124" d="M-11056.026,2781.317l14.373,14.373" transform="translate(11224 -1859)" fill="none" stroke="#ff5858" stroke-width="5"/>
          <path id="Path_125-3" data-name="Path 125" d="M-11056.026,2781.317l14.373,14.373" transform="translate(2963.664 11978.344) rotate(90)" fill="none" stroke="#ff5858" stroke-width="5"/>
        </g>
      </g>
      <g id="Group_584" data-name="Group 584" transform="translate(0 -12)">
        <path id="Path_351" data-name="Path 351" d="M5.7.08a.824.824,0,0,0,.82-.82V-11.86H10.1a.751.751,0,0,0,.74-.74.751.751,0,0,0-.74-.74H1.3a.751.751,0,0,0-.74.74.751.751,0,0,0,.74.74H4.86V-.74A.841.841,0,0,0,5.7.08Zm15.18,0a.99.99,0,0,0,.96-.7l2.6-8.12A1.013,1.013,0,0,0,24.48-9a.751.751,0,0,0-.74-.74.739.739,0,0,0-.72.52L20.8-1.96l-2.36-7.2a.841.841,0,0,0-.82-.58.841.841,0,0,0-.82.58l-2.36,7.2L12.22-9.22a.739.739,0,0,0-.72-.52.738.738,0,0,0-.74.74,1,1,0,0,0,.04.24L13.4-.62a.99.99,0,0,0,.96.7.966.966,0,0,0,.94-.7l2.32-7.14L19.94-.62A.966.966,0,0,0,20.88.08Zm6.32-11.7a1.007,1.007,0,0,0,1.02-1,1.024,1.024,0,0,0-1.02-1.02,1.02,1.02,0,0,0-1,1.02A1,1,0,0,0,27.2-11.62Zm0,11.7a.756.756,0,0,0,.76-.74V-9a.751.751,0,0,0-.74-.74.756.756,0,0,0-.76.74V-.66A.751.751,0,0,0,27.2.08Zm7.3-1.36c-.2,0-.34.18-.76.18-.66,0-.98-.52-.98-1.24v-6h1.38A.683.683,0,0,0,34.82-9a.683.683,0,0,0-.68-.66H32.76v-1.98a.751.751,0,0,0-.74-.74.756.756,0,0,0-.76.74v1.98H30.24a.666.666,0,0,0-.66.66.666.666,0,0,0,.66.66h1.02v6.32A1.976,1.976,0,0,0,33.4.24a2.576,2.576,0,0,0,1.36-.32.566.566,0,0,0,.38-.56A.609.609,0,0,0,34.5-1.28Zm5.88,0c-.2,0-.34.18-.76.18-.66,0-.98-.52-.98-1.24v-6h1.38A.683.683,0,0,0,40.7-9a.683.683,0,0,0-.68-.66H38.64v-1.98a.751.751,0,0,0-.74-.74.756.756,0,0,0-.76.74v1.98H36.12a.666.666,0,0,0-.66.66.666.666,0,0,0,.66.66h1.02v6.32A1.976,1.976,0,0,0,39.28.24a2.576,2.576,0,0,0,1.36-.32.566.566,0,0,0,.38-.56A.609.609,0,0,0,40.38-1.28Zm1.78-3.56A4.79,4.79,0,0,0,47.08.24,5.476,5.476,0,0,0,50.52-.9a.625.625,0,0,0,.26-.5.606.606,0,0,0-.62-.6.657.657,0,0,0-.34.08,4.169,4.169,0,0,1-2.6.92,3.4,3.4,0,0,1-3.48-3.34h6.94c.56,0,.88-.28.88-.76a4.578,4.578,0,0,0-4.64-4.8A4.831,4.831,0,0,0,42.16-4.84ZM46.9-8.66a3.131,3.131,0,0,1,3.18,3.22H43.74A3.223,3.223,0,0,1,46.9-8.66ZM58.12-9.82a1.584,1.584,0,0,0-.48.1A4.26,4.26,0,0,0,55.48-8.1V-9a.756.756,0,0,0-.76-.74.751.751,0,0,0-.74.74V-.66a.756.756,0,0,0,.76.74.751.751,0,0,0,.74-.74V-6.84a3.54,3.54,0,0,1,2.5-1.52c.52-.06.82-.38.82-.74A.672.672,0,0,0,58.12-9.82Z" transform="translate(789 1968)" fill="#4d5560"/>
        <g id="Group_580-2" data-name="Group 580" transform="translate(589 1031)">
          <path id="Path_124-4" data-name="Path 124" d="M-11056.026,2781.317l14.373,14.373" transform="translate(11224 -1859)" fill="#33c0ff" stroke="#33c0ff" stroke-width="5"/>
          <path id="Path_125-4" data-name="Path 125" d="M-11056.026,2781.317l14.373,14.373" transform="translate(2963.664 11978.344) rotate(90)" fill="#33c0ff" stroke="#33c0ff" stroke-width="5"/>
        </g>
      </g>
    </g>
    <rect id="_4" data-name="4" width="246.688" height="30" rx="5" transform="translate(889.483 2017.544)" fill="#eef3fb"/>
    <rect id="_4-2" data-name="4" width="246.688" height="30" rx="5" transform="translate(889.483 2073)" fill="#eef3fb"/>
    <rect id="_4-3" data-name="4" width="246.688" height="30" rx="5" transform="translate(889.483 1964.772)" fill="#eef3fb"/>
    <rect id="_4-4" data-name="4" width="246.688" height="30" rx="5" transform="translate(889.483 1912)" fill="#eef3fb"/>
    <g id="_1" data-name="1" transform="translate(889.483 1912)" fill="#ffa031" stroke="#ffa031" stroke-width="1">
      <rect width="187.684" height="30.286" rx="5" stroke="none"/>
      <rect x="0.5" y="0.5" width="186.684" height="29.286" rx="4.5" fill="none"/>
    </g>
    <rect id="_2" data-name="2" width="150.525" height="30.286" rx="5" transform="translate(889.483 1964.662)" fill="#18de74"/>
    <rect id="_3" data-name="3" width="211.34" height="30.286" rx="5" transform="translate(889.483 2017.324)" fill="#ff5858"/>
    <rect id="tod" width="181.61" height="30.286" rx="5" transform="translate(889.483 2072.714)" fill="#33c0ff"/>
  </g>
</svg>
