<svg xmlns="http://www.w3.org/2000/svg" width="380.172" height="191" viewBox="0 0 380.172 191">
  <g id="Group_598" data-name="Group 598" transform="translate(-278 -1912)">
    <g id="Group_590" data-name="Group 590" transform="translate(30 -80)">
      <g id="Group_589" data-name="Group 589">
        <path id="Path_347" data-name="Path 347" d="M10.98-1.2,7.92-5.48A3.665,3.665,0,0,0,11.1-9.32a3.885,3.885,0,0,0-4.18-4.02H2.44a.8.8,0,0,0-.88.88V-.74A.828.828,0,0,0,2.4.08a.837.837,0,0,0,.82-.82V-5.3H6.16L9.64-.26a.853.853,0,0,0,.7.34.808.808,0,0,0,.8-.76A.842.842,0,0,0,10.98-1.2ZM3.22-11.86h3.5A2.48,2.48,0,0,1,9.38-9.32,2.5,2.5,0,0,1,6.72-6.76H3.22ZM12.5-4.84A4.79,4.79,0,0,0,17.42.24,5.476,5.476,0,0,0,20.86-.9a.625.625,0,0,0,.26-.5A.606.606,0,0,0,20.5-2a.657.657,0,0,0-.34.08,4.169,4.169,0,0,1-2.6.92,3.4,3.4,0,0,1-3.48-3.34h6.94c.56,0,.88-.28.88-.76a4.578,4.578,0,0,0-4.64-4.8A4.831,4.831,0,0,0,12.5-4.84Zm4.74-3.82a3.131,3.131,0,0,1,3.18,3.22H14.08A3.223,3.223,0,0,1,17.24-8.66ZM28.12-9.9a5.009,5.009,0,0,0-3.48,1.26.653.653,0,0,0-.26.5.623.623,0,0,0,.62.62.788.788,0,0,0,.4-.12,3.562,3.562,0,0,1,2.52-.96c1.4,0,2.44.74,2.44,2.04v1.74a4.039,4.039,0,0,0-3.2-1.32,3.164,3.164,0,0,0-3.38,3.18A3.217,3.217,0,0,0,27.16.24a4.09,4.09,0,0,0,3.2-1.34v.44a.751.751,0,0,0,.74.74.756.756,0,0,0,.76-.74V-6.64C31.86-8.98,30.16-9.9,28.12-9.9ZM27.7-.84a2.165,2.165,0,0,1-2.38-2.1A2.168,2.168,0,0,1,27.7-5.06a3.235,3.235,0,0,1,2.66,1.2v1.82A3.235,3.235,0,0,1,27.7-.84ZM42.6-13.42a.751.751,0,0,0-.74.74v4.5A4.033,4.033,0,0,0,38.6-9.9c-2.54,0-4.3,2-4.3,5.08,0,3.14,1.78,5.06,4.3,5.06a4.067,4.067,0,0,0,3.26-1.68v.78a.751.751,0,0,0,.74.74.756.756,0,0,0,.76-.74V-12.68A.756.756,0,0,0,42.6-13.42ZM38.96-1.1c-1.94,0-3.1-1.58-3.1-3.72s1.16-3.74,3.1-3.74A3.626,3.626,0,0,1,41.86-7v4.38A3.593,3.593,0,0,1,38.96-1.1Z" transform="translate(280 2011)" fill="#4d5560"/>
        <rect id="_1" data-name="1" width="16" height="16" rx="8" transform="translate(248 1995)" fill="#ffcd45"/>
      </g>
      <g id="Group_588" data-name="Group 588" transform="translate(0 -4)">
        <path id="Path_348" data-name="Path 348" d="M12.68.08a1.117,1.117,0,0,0,1.1-.84l3.28-11.52a1.17,1.17,0,0,0,.04-.26.875.875,0,0,0-.88-.88.876.876,0,0,0-.84.66L12.58-2.22,9.68-12.78a.859.859,0,0,0-.84-.64.865.865,0,0,0-.86.64L5.08-2.22,2.26-12.76a.876.876,0,0,0-.84-.66.888.888,0,0,0-.88.88,1.171,1.171,0,0,0,.04.26L3.86-.76A1.141,1.141,0,0,0,4.98.08,1.136,1.136,0,0,0,6.1-.78l2.72-9.98L11.56-.78A1.12,1.12,0,0,0,12.68.08Zm9.9.16a4.756,4.756,0,0,0,4.78-5.08A4.739,4.739,0,0,0,22.58-9.9,4.739,4.739,0,0,0,17.8-4.84,4.756,4.756,0,0,0,22.58.24Zm0-1.34c-2.06,0-3.22-1.76-3.22-3.74,0-1.96,1.16-3.72,3.22-3.72s3.2,1.76,3.2,3.72C25.78-2.86,24.64-1.1,22.58-1.1ZM33.94-9.82a1.584,1.584,0,0,0-.48.1A4.26,4.26,0,0,0,31.3-8.1V-9a.756.756,0,0,0-.76-.74A.751.751,0,0,0,29.8-9V-.66a.756.756,0,0,0,.76.74.751.751,0,0,0,.74-.74V-6.84a3.54,3.54,0,0,1,2.5-1.52c.52-.06.82-.38.82-.74A.672.672,0,0,0,33.94-9.82ZM44.22-1.18l-3.6-4.06,3.46-3.32a.738.738,0,0,0,.2-.48.692.692,0,0,0-.68-.7.631.631,0,0,0-.48.18L37.9-4.5v-8.18a.751.751,0,0,0-.74-.74.756.756,0,0,0-.76.74V-.66a.751.751,0,0,0,.74.74.756.756,0,0,0,.76-.74V-2.8l1.64-1.52L43.08-.16a.729.729,0,0,0,.58.24.743.743,0,0,0,.74-.76A.808.808,0,0,0,44.22-1.18ZM50.44.24a4.756,4.756,0,0,0,4.78-5.08A4.739,4.739,0,0,0,50.44-9.9a4.739,4.739,0,0,0-4.78,5.06A4.756,4.756,0,0,0,50.44.24Zm0-1.34c-2.06,0-3.22-1.76-3.22-3.74,0-1.96,1.16-3.72,3.22-3.72s3.2,1.76,3.2,3.72C53.64-2.86,52.5-1.1,50.44-1.1ZM64.92-9.74a.751.751,0,0,0-.74.74v6.44A3.7,3.7,0,0,1,61.32-1.1c-1.3,0-2.16-.5-2.16-2.2V-9a.751.751,0,0,0-.74-.74.756.756,0,0,0-.76.74v6.16c0,2.1,1.06,3.08,3.08,3.08a4.748,4.748,0,0,0,3.44-1.58v.68a.756.756,0,0,0,.76.74.751.751,0,0,0,.74-.74V-9A.756.756,0,0,0,64.92-9.74Zm7.3,8.46c-.2,0-.34.18-.76.18-.66,0-.98-.52-.98-1.24v-6h1.38A.683.683,0,0,0,72.54-9a.683.683,0,0,0-.68-.66H70.48v-1.98a.751.751,0,0,0-.74-.74.756.756,0,0,0-.76.74v1.98H67.96A.666.666,0,0,0,67.3-9a.666.666,0,0,0,.66.66h1.02v6.32A1.976,1.976,0,0,0,71.12.24a2.576,2.576,0,0,0,1.36-.32.566.566,0,0,0,.38-.56A.609.609,0,0,0,72.22-1.28Z" transform="translate(280 2070)" fill="#4d5560"/>
        <rect id="_2" data-name="2" width="16" height="16" rx="8" transform="translate(248 2054)" fill="#9c5cff"/>
      </g>
      <g id="Group_586" data-name="Group 586" transform="translate(0 -15)">
        <path id="Path_350" data-name="Path 350" d="M.7-.86a4.166,4.166,0,0,0,3,1.1A3.921,3.921,0,0,0,7.94-4.02V-12.6a.841.841,0,0,0-.84-.82.824.824,0,0,0-.82.82v8.56A2.584,2.584,0,0,1,3.6-1.24a2.754,2.754,0,0,1-2-.84.82.82,0,0,0-.44-.14.764.764,0,0,0-.78.76A.705.705,0,0,0,.7-.86ZM15.22.24A4.756,4.756,0,0,0,20-4.84,4.739,4.739,0,0,0,15.22-9.9a4.739,4.739,0,0,0-4.78,5.06A4.756,4.756,0,0,0,15.22.24Zm0-1.34C13.16-1.1,12-2.86,12-4.84c0-1.96,1.16-3.72,3.22-3.72s3.2,1.76,3.2,3.72C18.42-2.86,17.28-1.1,15.22-1.1ZM29.7-9.74a.751.751,0,0,0-.74.74v6.44A3.7,3.7,0,0,1,26.1-1.1c-1.3,0-2.16-.5-2.16-2.2V-9a.751.751,0,0,0-.74-.74.756.756,0,0,0-.76.74v6.16c0,2.1,1.06,3.08,3.08,3.08a4.748,4.748,0,0,0,3.44-1.58v.68a.756.756,0,0,0,.76.74.751.751,0,0,0,.74-.74V-9A.756.756,0,0,0,29.7-9.74Zm7.9-.08a1.584,1.584,0,0,0-.48.1A4.26,4.26,0,0,0,34.96-8.1V-9a.756.756,0,0,0-.76-.74.751.751,0,0,0-.74.74V-.66a.756.756,0,0,0,.76.74.751.751,0,0,0,.74-.74V-6.84a3.54,3.54,0,0,1,2.5-1.52c.52-.06.82-.38.82-.74A.672.672,0,0,0,37.6-9.82ZM45-9.9a4.694,4.694,0,0,0-3.44,1.66V-9a.756.756,0,0,0-.76-.74.751.751,0,0,0-.74.74V-.66a.756.756,0,0,0,.76.74.751.751,0,0,0,.74-.74v-6.4a3.73,3.73,0,0,1,2.86-1.5c1.3,0,2.16.54,2.16,2.24V-.66a.751.751,0,0,0,.74.74.756.756,0,0,0,.76-.74V-6.78C48.08-8.88,47.02-9.9,45-9.9Zm9.88,0A5.009,5.009,0,0,0,51.4-8.64a.653.653,0,0,0-.26.5.623.623,0,0,0,.62.62.788.788,0,0,0,.4-.12,3.562,3.562,0,0,1,2.52-.96c1.4,0,2.44.74,2.44,2.04v1.74a4.039,4.039,0,0,0-3.2-1.32,3.164,3.164,0,0,0-3.38,3.18A3.217,3.217,0,0,0,53.92.24a4.09,4.09,0,0,0,3.2-1.34v.44a.751.751,0,0,0,.74.74.756.756,0,0,0,.76-.74V-6.64C58.62-8.98,56.92-9.9,54.88-9.9ZM54.46-.84a2.165,2.165,0,0,1-2.38-2.1,2.168,2.168,0,0,1,2.38-2.12,3.235,3.235,0,0,1,2.66,1.2v1.82A3.235,3.235,0,0,1,54.46-.84Zm7.92.92a.751.751,0,0,0,.74-.74V-12.68a.751.751,0,0,0-.74-.74.756.756,0,0,0-.76.74V-.66A.756.756,0,0,0,62.38.08Z" transform="translate(280 2191)" fill="#4d5560"/>
        <rect id="_4" data-name="4" width="16" height="16" rx="8" transform="translate(248 2175)" fill="#18de74"/>
      </g>
      <g id="Group_587" data-name="Group 587" transform="translate(0 -8)">
        <path id="Path_349" data-name="Path 349" d="M13.78.08a.828.828,0,0,0,.84-.82V-12.02a1.4,1.4,0,0,0-1.4-1.4,1.377,1.377,0,0,0-1.3.88L8.08-3.12,4.26-12.54a1.377,1.377,0,0,0-1.3-.88,1.4,1.4,0,0,0-1.4,1.4V-.74A.828.828,0,0,0,2.4.08a.837.837,0,0,0,.82-.82V-11.1L7.62-.26a.485.485,0,0,0,.46.34.468.468,0,0,0,.46-.34L12.96-11.1V-.74A.837.837,0,0,0,13.78.08Zm3.34-4.92A4.79,4.79,0,0,0,22.04.24,5.476,5.476,0,0,0,25.48-.9a.625.625,0,0,0,.26-.5.606.606,0,0,0-.62-.6.657.657,0,0,0-.34.08,4.169,4.169,0,0,1-2.6.92A3.4,3.4,0,0,1,18.7-4.34h6.94c.56,0,.88-.28.88-.76a4.578,4.578,0,0,0-4.64-4.8A4.831,4.831,0,0,0,17.12-4.84Zm4.74-3.82a3.131,3.131,0,0,1,3.18,3.22H18.7A3.223,3.223,0,0,1,21.86-8.66Zm14.82-4.76a.751.751,0,0,0-.74.74v4.5A4.033,4.033,0,0,0,32.68-9.9c-2.54,0-4.3,2-4.3,5.08,0,3.14,1.78,5.06,4.3,5.06a4.067,4.067,0,0,0,3.26-1.68v.78a.751.751,0,0,0,.74.74.756.756,0,0,0,.76-.74V-12.68A.756.756,0,0,0,36.68-13.42ZM33.04-1.1c-1.94,0-3.1-1.58-3.1-3.72s1.16-3.74,3.1-3.74A3.626,3.626,0,0,1,35.94-7v4.38A3.593,3.593,0,0,1,33.04-1.1Zm8.14-10.52a1.007,1.007,0,0,0,1.02-1,1.024,1.024,0,0,0-1.02-1.02,1.02,1.02,0,0,0-1,1.02A1,1,0,0,0,41.18-11.62Zm0,11.7a.756.756,0,0,0,.76-.74V-9a.751.751,0,0,0-.74-.74.756.756,0,0,0-.76.74V-.66A.751.751,0,0,0,41.18.08Zm7.3-1.36c-.2,0-.34.18-.76.18-.66,0-.98-.52-.98-1.24v-6h1.38A.683.683,0,0,0,48.8-9a.683.683,0,0,0-.68-.66H46.74v-1.98a.751.751,0,0,0-.74-.74.756.756,0,0,0-.76.74v1.98H44.22a.666.666,0,0,0-.66.66.666.666,0,0,0,.66.66h1.02v6.32A1.976,1.976,0,0,0,47.38.24a2.576,2.576,0,0,0,1.36-.32.566.566,0,0,0,.38-.56A.609.609,0,0,0,48.48-1.28ZM54.62-9.9a5.009,5.009,0,0,0-3.48,1.26.653.653,0,0,0-.26.5.623.623,0,0,0,.62.62.788.788,0,0,0,.4-.12,3.562,3.562,0,0,1,2.52-.96c1.4,0,2.44.74,2.44,2.04v1.74a4.039,4.039,0,0,0-3.2-1.32,3.164,3.164,0,0,0-3.38,3.18A3.217,3.217,0,0,0,53.66.24a4.09,4.09,0,0,0,3.2-1.34v.44a.751.751,0,0,0,.74.74.756.756,0,0,0,.76-.74V-6.64C58.36-8.98,56.66-9.9,54.62-9.9ZM54.2-.84a2.165,2.165,0,0,1-2.38-2.1A2.168,2.168,0,0,1,54.2-5.06a3.235,3.235,0,0,1,2.66,1.2v1.82A3.235,3.235,0,0,1,54.2-.84Zm10.7-.44c-.2,0-.34.18-.76.18-.66,0-.98-.52-.98-1.24v-6h1.38A.683.683,0,0,0,65.22-9a.683.683,0,0,0-.68-.66H63.16v-1.98a.751.751,0,0,0-.74-.74.756.756,0,0,0-.76.74v1.98H60.64a.666.666,0,0,0-.66.66.666.666,0,0,0,.66.66h1.02v6.32A1.976,1.976,0,0,0,63.8.24a2.577,2.577,0,0,0,1.36-.32.566.566,0,0,0,.38-.56A.609.609,0,0,0,64.9-1.28Zm1.78-3.56A4.79,4.79,0,0,0,71.6.24,5.477,5.477,0,0,0,75.04-.9a.625.625,0,0,0,.26-.5.606.606,0,0,0-.62-.6.657.657,0,0,0-.34.08,4.169,4.169,0,0,1-2.6.92,3.4,3.4,0,0,1-3.48-3.34H75.2c.56,0,.88-.28.88-.76a4.578,4.578,0,0,0-4.64-4.8A4.831,4.831,0,0,0,66.68-4.84Zm4.74-3.82A3.131,3.131,0,0,1,74.6-5.44H68.26A3.223,3.223,0,0,1,71.42-8.66Z" transform="translate(280 2129)" fill="#4d5560"/>
        <rect id="_3" data-name="3" width="16" height="16" rx="8" transform="translate(248 2113)" fill="#69ebf5"/>
      </g>
    </g>
    <rect id="_4-2" data-name="4" width="246.688" height="30" rx="5" transform="translate(411.483 2017)" fill="#eef3fb"/>
    <rect id="_4-3" data-name="4" width="246.688" height="30" rx="5" transform="translate(411.483 2073)" fill="#eef3fb"/>
    <rect id="_4-4" data-name="4" width="246.688" height="30" rx="5" transform="translate(411.483 1965)" fill="#eef3fb"/>
    <rect id="_4-5" data-name="4" width="246.688" height="30" rx="5" transform="translate(411.483 1912)" fill="#eef3fb"/>
    <rect id="_1-2" data-name="1" width="226.684" height="30" rx="5" transform="translate(411.483 1912)" fill="#ffcd45"/>
    <rect id="_2-2" data-name="2" width="187.525" height="30" rx="5" transform="translate(411.483 1965)" fill="#9c5cff"/>
    <rect id="_3-2" data-name="3" width="158.34" height="30" rx="5" transform="translate(411.483 2017)" fill="#69ebf5"/>
    <rect id="tod" width="231.61" height="30" rx="5" transform="translate(411.483 2073)" fill="#18de74"/>
  </g>
</svg>
